HIERARCHY
ROOT joint_Root
{
	OFFSET 0.0 0.0 0.0
	CHANNELS 6 Xposition Yposition Zposition Zrotation Xrotation Yrotation 
	JOINT Hips
	{
		OFFSET 4.5925 91.4895 -427.239
		CHANNELS 6 Xposition Yposition Zposition Zrotation Xrotation Yrotation 
		JOINT Spine
		{
			OFFSET 15.7357 0.0 0.0
			CHANNELS 6 Xposition Yposition Zposition Zrotation Xrotation Yrotation 
			JOINT Chest
			{
				OFFSET 8.98455 -0.406207 0.0
				CHANNELS 6 Xposition Yposition Zposition Zrotation Xrotation Yrotation 
				JOINT Neck
				{
					OFFSET 16.3773 0.0 0.0
					CHANNELS 6 Xposition Yposition Zposition Zrotation Xrotation Yrotation 
					JOINT Head
					{
						OFFSET 6.45672 0.0 0.0
						CHANNELS 6 Xposition Yposition Zposition Zrotation Xrotation Yrotation 
						End Site
						{
							OFFSET 0.0 0.0 0.0
						}
					}
				}
				JOINT Shoulder_L
				{
					OFFSET 12.9942 -0.242716 4.98039
					CHANNELS 6 Xposition Yposition Zposition Zrotation Xrotation Yrotation 
					JOINT UpperArm_L
					{
						OFFSET 5.34809 0.0 0.0
						CHANNELS 6 Xposition Yposition Zposition Zrotation Xrotation Yrotation 
						JOINT LowerArm_L
						{
							OFFSET 24.3286 1.87007e-05 0.0
							CHANNELS 6 Xposition Yposition Zposition Zrotation Xrotation Yrotation 
							JOINT Hand_L
							{
								OFFSET 22.2916 0.0 0.0
								CHANNELS 6 Xposition Yposition Zposition Zrotation Xrotation Yrotation 
								End Site
								{
									OFFSET 0.0 0.0 0.0
								}
							}
						}
					}
				}
				JOINT Shoulder_R
				{
					OFFSET 12.9945 -0.242716 -4.98039
					CHANNELS 6 Xposition Yposition Zposition Zrotation Xrotation Yrotation 
					JOINT UpperArm_R
					{
						OFFSET -5.34813 0.0 0.0
						CHANNELS 6 Xposition Yposition Zposition Zrotation Xrotation Yrotation 
						JOINT LowerArm_R
						{
							OFFSET -24.3289 0.000322201 0.0
							CHANNELS 6 Xposition Yposition Zposition Zrotation Xrotation Yrotation 
							JOINT Hand_R
							{
								OFFSET -22.2915 -0.000108084 0.0
								CHANNELS 6 Xposition Yposition Zposition Zrotation Xrotation Yrotation 
								End Site
								{
									OFFSET 0.0 0.0 0.0
								}
							}
						}
					}
				}
			}
		}
		JOINT UpperLeg_L
		{
			OFFSET -2.19248 -6.46944 0.0
			CHANNELS 6 Xposition Yposition Zposition Zrotation Xrotation Yrotation 
			JOINT LowerLeg_L
			{
				OFFSET 39.0811 0.0 -1.23785e-05
				CHANNELS 6 Xposition Yposition Zposition Zrotation Xrotation Yrotation 
				JOINT Foot_L
				{
					OFFSET 40.9854 0.0 -1.26872e-05
					CHANNELS 6 Xposition Yposition Zposition Zrotation Xrotation Yrotation 
					JOINT Toes_L
					{
						OFFSET 11.7543 0.0 0.0
						CHANNELS 6 Xposition Yposition Zposition Zrotation Xrotation Yrotation 
						End Site
						{
							OFFSET 0.0 0.0 0.0
						}
					}
				}
			}
		}
		JOINT UpperLeg_R
		{
			OFFSET -2.19251 6.46944 0.0
			CHANNELS 6 Xposition Yposition Zposition Zrotation Xrotation Yrotation 
			JOINT LowerLeg_R
			{
				OFFSET -39.0811 -0.00228153 -0.0401928
				CHANNELS 6 Xposition Yposition Zposition Zrotation Xrotation Yrotation 
				JOINT Foot_R
				{
					OFFSET -40.9854 0.0 0.0
					CHANNELS 6 Xposition Yposition Zposition Zrotation Xrotation Yrotation 
					JOINT Toes_R
					{
						OFFSET -11.7543 0.0 0.0
						CHANNELS 6 Xposition Yposition Zposition Zrotation Xrotation Yrotation 
						End Site
						{
							OFFSET 0.0 0.0 0.0
						}
					}
				}
			}
		}
	}
}
MOTION
Frames:	4
Frame Time:	0.0333333
0.000000 0.000000 0.000000 0.000000 0.000000 -0.000000 4.109770 83.026800 70.005300 -89.007900 -3.771730 169.373000 15.735700 0.000005 -0.000001 68.078400 81.350500 -68.475600 8.984550 -0.406207 -0.000000 8.298940 -6.430730 -0.327174 16.377300 -0.000001 -0.000001 -2.673580 -3.033830 1.354280 6.456720 -0.000001 -0.000000 -7.983110 -0.363307 3.669930 12.994200 -0.242716 4.980390 -90.009600 0.035693 -74.885900 5.348090 -0.000007 -0.000001 -57.862300 13.570600 -23.325700 24.328600 0.000019 0.000005 8.875310 0.740685 -85.268500 22.291600 -0.000001 0.000005 8.630150 5.525510 -7.600220 12.994500 -0.242716 -4.980390 88.031800 8.259700 -76.546000 -5.348130 -0.000001 -0.000004 -62.522800 36.179500 11.430200 -24.328900 0.000322 -0.000009 -12.076600 -8.158770 -56.443000 -22.291500 -0.000108 -0.000004 14.247000 5.654930 -15.497200 -2.192480 -6.469440 -0.000000 178.257000 -6.211540 -17.711300 39.081100 -0.000007 -0.000012 -0.560297 0.482958 49.241100 40.985400 -0.000006 -0.000013 4.863320 1.068760 -92.847000 11.754300 -0.000000 0.000003 -0.000028 -0.000338 -16.590800 -2.192510 6.469440 -0.000001 -174.074000 6.062040 125.191000 -39.081100 -0.002282 -0.040193 -0.684742 -0.509018 126.486000 -40.985400 0.000008 0.000006 15.423900 -13.076100 -38.047500 -11.754300 -0.000006 -0.000006 -0.015911 -0.143478 -22.428500
0.000000 0.000000 0.000000 0.000000 0.000000 -0.000000 4.565050 86.338400 56.313100 -84.891300 -5.993440 167.211000 15.735700 0.000005 -0.000001 57.725600 81.925300 -55.847600 8.984550 -0.406207 -0.000000 6.086650 -8.628030 4.216890 16.377300 -0.000001 -0.000001 -1.810600 -2.785220 1.064040 6.456720 -0.000001 -0.000000 -6.887460 1.372460 2.070640 12.994200 -0.242716 4.980390 -89.595100 -1.485410 -74.750000 5.348090 -0.000007 -0.000001 -60.350000 13.989900 -21.681300 24.328600 0.000019 0.000005 7.647610 -0.031086 -90.233300 22.291600 -0.000001 0.000005 9.314540 5.512870 -7.061340 12.994500 -0.242716 -4.980390 88.339300 6.124340 -74.794500 -5.348130 -0.000001 -0.000004 -64.362500 36.140000 17.103300 -24.328900 0.000322 -0.000009 -10.354700 -6.105750 -59.794000 -22.291500 -0.000108 -0.000004 13.071200 5.648730 -14.891700 -2.192480 -6.469440 -0.000000 -175.781000 -5.196050 -6.460320 39.081100 -0.000007 -0.000012 0.045366 -0.061814 36.274300 40.985400 -0.000006 -0.000013 5.960470 2.583970 -76.044800 11.754300 -0.000000 0.000003 -0.084731 -0.404988 -33.411800 -2.192510 6.469440 -0.000001 -169.578000 1.753910 120.821000 -39.081100 -0.002282 -0.040193 -0.379626 -0.160573 112.737000 -40.985400 0.000008 0.000006 11.752300 -12.782500 -50.168400 -11.754300 -0.000006 -0.000006 -0.015302 -0.139711 -22.273700
0.000000 0.000000 0.000000 0.000000 0.000000 -0.000000 4.648470 90.164300 43.174200 -84.433500 -8.271760 164.793000 15.735700 0.000005 -0.000001 46.570500 82.161100 -43.502200 8.984550 -0.406207 -0.000000 3.978680 -10.864800 6.522880 16.377300 -0.000001 -0.000001 -1.076790 -2.822390 1.050250 6.456720 -0.000001 -0.000000 -6.777930 2.533250 0.953173 12.994200 -0.242716 4.980390 -89.297200 -2.532620 -74.485800 5.348090 -0.000007 -0.000001 -63.943200 15.275600 -19.644600 24.328600 0.000019 0.000005 8.470760 -0.335630 -92.251800 22.291600 -0.000001 0.000005 9.374810 5.494850 -6.327710 12.994500 -0.242716 -4.980390 88.657700 4.451470 -73.199100 -5.348130 -0.000001 -0.000004 -65.748400 33.967800 21.234800 -24.328900 0.000322 -0.000009 -9.640820 -5.316290 -61.387400 -22.291500 -0.000108 -0.000004 12.489900 5.644310 -14.493100 -2.192480 -6.469440 -0.000000 -171.773000 -10.477100 -1.340950 39.081100 -0.000007 -0.000012 0.024558 -0.046358 27.911600 40.985400 -0.000006 -0.000013 1.041030 9.736020 -47.859100 11.754300 -0.000000 0.000003 -0.199043 -0.643522 -44.151600 -2.192510 6.469440 -0.000001 -169.877000 0.237838 118.788000 -39.081100 -0.002282 -0.040193 -0.101904 -0.007576 94.071600 -40.985400 0.000008 0.000006 8.454320 -10.350900 -57.676900 -11.754300 -0.000006 -0.000006 -0.014620 -0.135409 -22.097200
0.000000 0.000000 0.000000 0.000000 0.000000 -0.000000 4.370570 92.849000 30.049400 -86.168900 -8.753570 164.165000 15.735700 0.000005 -0.000001 40.609100 82.071600 -37.425500 8.984550 -0.406207 -0.000000 2.961900 -12.160700 6.694800 16.377300 -0.000001 -0.000001 0.092958 -2.678450 1.109530 6.456720 -0.000001 -0.000000 -7.318300 3.250100 0.206244 12.994200 -0.242716 4.980390 -88.981900 -3.557230 -74.017100 5.348090 -0.000007 -0.000001 -66.670500 17.335200 -17.728100 24.328600 0.000019 0.000005 9.976110 -0.499157 -92.835300 22.291600 -0.000001 0.000005 9.321490 5.479700 -5.737660 12.994500 -0.242716 -4.980390 89.156100 2.576890 -71.855600 -5.348130 -0.000001 -0.000004 -67.416800 31.290800 24.010200 -24.328900 0.000322 -0.000009 -8.395780 -4.537550 -61.804100 -22.291500 -0.000108 -0.000004 12.094600 5.634890 -13.711300 -2.192480 -6.469440 -0.000000 -168.193000 -17.998900 4.750330 39.081100 -0.000007 -0.000012 0.063147 -0.145040 23.527100 40.985400 -0.000006 -0.000013 -8.563940 10.537300 -30.718400 11.754300 -0.000000 0.000003 -0.002226 -0.031519 -17.858400 -2.192510 6.469440 -0.000001 -172.307000 0.547177 121.610000 -39.081100 -0.002282 -0.040193 0.039532 -0.011458 72.552600 -40.985400 0.000008 0.000006 7.488080 -6.236570 -63.593500 -11.754300 -0.000006 -0.000006 -0.017659 -0.153958 -22.859200
